# xmcd CD database file
#
# Track frame offsets:
#	150
#	3295
#	16498
#	39141
#	52360
#	74827
#	85970
#	104624
#	120038
#	142476
#	155784
#	178181
#	194303
#	217720
#	231404
#	255024
#	267293
#	289329
#	304001
#	328137
#	340001
#
# Disc length: 4787 seconds
#
# Revision: 0
# Processed by: cddbd v1.5.2PL0 Copyright (c) Steve Scherf et al.
# Submitted via: CDex 1.50
#
DISCID=3812b115
DTITLE=Charlier et Sourisse - Les Cahiers - Initiation et perfectionnement à l'improvisation
DYEAR=2007
DGENRE=Jazz
TTITLE0=Plage d'accord (C)
TTITLE1=Trois Couleurs (quartet)
TTITLE2=Trois Couleurs (rythm)
TTITLE3=Silent Man (quartet)
TTITLE4=Silent Man (rythm)
TTITLE5=Gentle Colossus (quartet)
TTITLE6=Gentle Colossus (rythm)
TTITLE7=La Légende d'Eole (quartet)
TTITLE8=La Légende d'Eole (rythm)
TTITLE9=Mister Kelly (quartet)
TTITLE10=Mister Kelly (rythm)
TTITLE11=Bahia la Nuit (quartet)
TTITLE12=Bahia la Nuit (rythm)
TTITLE13=The Juggler (quartet)
TTITLE14=The Juggler (rythm)
TTITLE15=Batuque (quartet)
TTITLE16=Batuque (rythm)
TTITLE17=Your Romance (quartet)
TTITLE18=Your Romance (rythm)
TTITLE19=Second Line (quartet)
TTITLE20=Second Line (rythm)
EXTD=YEAR: 2007
EXTT0=
EXTT1=
EXTT2=
EXTT3=
EXTT4=
EXTT5=
EXTT6=
EXTT7=
EXTT8=
EXTT9=
EXTT10=
EXTT11=
EXTT12=
EXTT13=
EXTT14=
EXTT15=
EXTT16=
EXTT17=
EXTT18=
EXTT19=
EXTT20=
PLAYORDER=
